<?xml version="1.0" encoding="utf-8"?>
<!-- Generator: Adobe Illustrator 21.1.0, SVG Export Plug-In . SVG Version: 6.00 Build 0)  -->
<svg version="1.1" id="Layer_1" xmlns="http://www.w3.org/2000/svg" xmlns:xlink="http://www.w3.org/1999/xlink" x="0px" y="0px"
	 viewBox="0 0 100 100" style="enable-background:new 0 0 100 100;" xml:space="preserve">
<path d="M11.1,53.1C9.5,50.7,8.5,48,8.1,45c-0.3,0.1-0.7,0.2-1,0.2c-2.3,0-4.2-1.9-4.2-4.2c0-1.5,0.8-2.8,1.9-3.5l12.1-8.5
	c2.5-1.6,5.5-2.5,8.7-2.6l30.1,0.1l22-3.5c0-0.1,0-0.2,0-0.3c0-2.2,1.8-4,4-4s4,1.8,4,4c0,0.3,0,0.7-0.1,1l2,0.3
	c2.4,0.5,4.2,2.5,4.2,5.1c0,0.2,0,0.3,0,0.4l6.5,3.5c0.9,0.4,1.6,1.3,1.6,2.4c0,0.4-0.1,0.7-0.2,1L98.2,40c-0.8,1.3-2.2,2.2-3.8,2.4
	l-15,1.8L65.8,60.1l7.7,13.4l5.1,2.4c0.8,0.6,1.4,1.5,1.4,2.5c0,1.7-1.4,3.1-3.1,3.1l-9.8,0c-2.5,0-4.7-1.4-5.8-3.5l-8.4-15.2
	l-18.9,0l6.7,10.3l4.9,2.2c0.9,0.6,1.5,1.5,1.5,2.7c0,1.7-1.4,3.1-3.1,3.1l-9.8,0c-2.4,0-4.5-1.3-5.6-3.2l-9.2-14.6l-6.4,6.2
	l-0.5,4.1l2.2,1.4c0.4,0.2,0.7,0.4,1,0.8c1.1,1.3,0.9,3.3-0.5,4.3c-0.6,0.5-1.3,0.7-2,0.7l-4.3,0c-1.2-0.1-2.3-0.8-3-1.7l-5-8.7
	C0.3,69.6,0,68.5,0,67.4c0-1.7,0.6-3.2,1.7-4.4L11.1,53.1z"/>
</svg>
