<?xml version="1.0" encoding="utf-8"?>
<!-- Generator: Adobe Illustrator 21.1.0, SVG Export Plug-In . SVG Version: 6.00 Build 0)  -->
<svg version="1.1" id="Layer_1" xmlns="http://www.w3.org/2000/svg" xmlns:xlink="http://www.w3.org/1999/xlink" x="0px" y="0px"
	 viewBox="0 0 100 100" style="enable-background:new 0 0 100 100;" xml:space="preserve">
<path d="M35.5,25.5c0,0,8.6-23.2,12.7-20.6s4.6,8.9,1.4,15.3c-2.9,5.9-6.7,10.2-6.7,10.2c2.6,2.1,3.1,8,1,12.8
	c0,0,12.2-2.5,24.1,4.8c11.9,7.3,17.1,18.1,17.1,27.2c0,9.1-2.7,19.6-12.4,19.6H45.8c-0.6,0-1.1-0.5-1-1.1c0.5-3.8,3.6-5.8,9.4-5.8
	c-3.3-0.7-7-5.5-7.5-8.3c-4.3,4.6-6.6,11.5-7.3,14.2c-0.2,0.6-0.8,1.1-1.4,1.1h-8.5c-1,0-1.9-0.8-1.6-1.8c1-3.6,5.5-1.2,5.5-15.1
	c0-7.5-13.7-12.9-7.8-30.5c0,0-11.4-0.4-10.6-7.5C15.7,32.6,28.3,24.1,35.5,25.5z"/>
</svg>
