<?xml version="1.0" encoding="utf-8"?>
<!-- Generator: Adobe Illustrator 21.1.0, SVG Export Plug-In . SVG Version: 6.00 Build 0)  -->
<svg version="1.1" id="Layer_1" xmlns="http://www.w3.org/2000/svg" xmlns:xlink="http://www.w3.org/1999/xlink" x="0px" y="0px"
	 viewBox="0 0 100 100" style="enable-background:new 0 0 100 100;" xml:space="preserve">
<polygon points="10.8,40.7 7.4,44.2 7.4,48.3 5.5,51.8 9.9,54.8 16.2,53.1 19.7,55 17.6,57.3 16.3,62.9 4.3,75.6 1,76.4 0,79.8 
	7,79.8 35.1,59.2 33.2,62.7 35.8,62.7 41.4,75.6 38.9,77.2 37.8,79.8 45.9,79.8 44.3,62.7 64.1,62.7 62.8,59 66.5,62.9 71.9,70.5 
	67.5,75.6 64.1,76.3 63,79.8 70.1,79.8 79,71.2 76.9,63.1 80,58.2 79,62.5 90.6,66.1 95.3,73.3 95.3,77 97.9,78.6 100,72.8 
	95.5,60.8 88.4,55.2 82.2,42.9 80.7,41.6 82.1,41.3 90.5,30.7 93.2,18.7 97.8,12 92.8,12.7 87.8,18.3 84.8,28.2 73.5,38 65.5,35 
	40.2,40 31.7,40.2 30.8,41.1 20.6,39.9 8.1,35.2 11,40.1 "/>
</svg>
