<?xml version="1.0" encoding="utf-8"?>
<!-- Generator: Adobe Illustrator 21.1.0, SVG Export Plug-In . SVG Version: 6.00 Build 0)  -->
<svg version="1.1" id="Layer_1" xmlns="http://www.w3.org/2000/svg" xmlns:xlink="http://www.w3.org/1999/xlink" x="0px" y="0px"
	 viewBox="0 0 100 100" style="enable-background:new 0 0 100 100;" xml:space="preserve">
<path d="M73.1,35.1h17.3L95,23.4l-4.5-4.3l-10.1,0.1l-7.2-6.6H62L68.2,5L55.6,8.1L52,22c-2,6.9-6.2,16-9.5,21.2
	c-9.8,15.2-19.1,25.4-20.6,36.1c-6.4-1.6-15.7-6.5-16.1-21.2c0,0-6,22.7,15.2,29.5c-0.4,4.6-0.3,7.3-0.3,7.3h31.7h11.3h4.4
	c-0.4-2.7-2.9-4.2-4.6-4.8l-0.7-13L61.1,72l3.5-0.7L70.7,95h3.9h6.8h8.9c-0.6-4.2-6.2-5.3-6.2-5.3h-3.9l-5.4-19.4l-1.7-8.5
	l-5.3-21.1l2.8-7L73.1,35.1z"/>
</svg>
