<?xml version="1.0" encoding="utf-8"?>
<!-- Generator: Adobe Illustrator 21.1.0, SVG Export Plug-In . SVG Version: 6.00 Build 0)  -->
<svg version="1.1" id="Layer_1" xmlns="http://www.w3.org/2000/svg" xmlns:xlink="http://www.w3.org/1999/xlink" x="0px" y="0px"
	 viewBox="0 0 100 100" style="enable-background:new 0 0 100 100;" xml:space="preserve">
<title>throw cushions</title>
<path d="M87.2,19.9c0.8-1,1.4-2,1.8-3.2c1-1.8,0.4-4-1.4-5c-1.1-0.6-2.5-0.6-3.6,0c-1.2,0.4-2.3,1-3.2,1.8
	c-17.1-2.4-34.4-2.8-51.6-1.1l-3,0.3c-2.3,0.2-4.6,0.5-7,0.8c-1-0.8-2-1.4-3.2-1.8c-1.8-1-4-0.4-5,1.4c-0.6,1.1-0.6,2.4,0,3.6
	c0.4,1.2,1,2.3,1.8,3.2C10,40.3,10,61,12.8,81.5c-0.8,1-1.4,2-1.8,3.2c-1,1.8-0.4,4,1.4,5c1.1,0.6,2.5,0.6,3.6,0
	c1.2-0.4,2.3-1,3.2-1.8c20.4,2.9,41.2,2.9,61.6,0c1,0.8,2,1.4,3.2,1.8c1.4,0.7,3.2,0.5,4.4-0.6c0.3-0.3,0.5-0.6,0.7-1
	c0.4-1.1,0.4-2.3-0.1-3.3c-0.4-1.2-1-2.3-1.8-3.2c0.9-7,1.5-13.5,1.8-19.8l0.2-6.1C89.5,43.7,88.8,31.8,87.2,19.9z"/>
</svg>
